STARTFONT 2.1
COMMENT Copyright (C) 1990-1991 EWT Consulting
COMMENT Portions Copyright (C) 1994-1995 Cronyx Ltd.
COMMENT Modified by Serge Vakulenko, <vak@cronyx.ru>
COMMENT Encoding changed to CP1251 by Rabinovich Moisei, <moisei@cs.bgu.ac.il>,$
COMMENT This software may be used, modified, copied, distributed, and sold,
COMMENT in both source and binary form provided that the copyright
COMMENT and these terms are retained. Under no circumstances is the author
COMMENT responsible for the proper functioning of this software, nor does
COMMENT the author assume any responsibility for damages incurred with its use.
FONT -Cronyx-Courier-Bold-R-Normal--8-80-75-75-M-50-RAWIN-R
SIZE 8 96 96
FONTBOUNDINGBOX 9 13 0 -2
STARTPROPERTIES 19
DEFAULT_CHAR 32
FONT_ASCENT 11
FONT_DESCENT 2
SPACING "M"
FONTNAME_REGISTRY ""
FOUNDRY "Cronyx"
FAMILY_NAME "Courier"
WEIGHT_NAME "Bold"
SLANT "R"
SETWIDTH_NAME "Normal"
ADD_STYLE_NAME ""
AVERAGE_WIDTH 50
CHARSET_REGISTRY "RAWIN"
CHARSET_ENCODING "R"
PIXEL_SIZE 8
POINT_SIZE 80
RESOLUTION_X 75
RESOLUTION_Y 75
COPYRIGHT "Copyright (C) 1990, 1991 EWT Consulting, Portions Copyright (C) 1994 Cronyx Ltd."
ENDPROPERTIES
CHARS 224
STARTCHAR space
ENCODING 32
SWIDTH 692 0
DWIDTH 9 0
BBX 9 13 0 -2
BITMAP
0000
0000
0000
0000
0000
0000
0000
0000
0000
0000
0000
0000
0000
ENDCHAR
STARTCHAR exclam
ENCODING 33
SWIDTH 692 0
DWIDTH 9 0
BBX 9 13 0 -2
BITMAP
0000
0000
0C00
0C00
0C00
0C00
0C00
0C00
0C00
0000
0C00
0000
0000
ENDCHAR
STARTCHAR quotedbl
ENCODING 34
SWIDTH 692 0
DWIDTH 9 0
BBX 9 13 0 -2
BITMAP
0000
0000
1E00
1E00
1E00
0000
0000
0000
0000
0000
0000
0000
0000
ENDCHAR
STARTCHAR numbersign
ENCODING 35
SWIDTH 692 0
DWIDTH 9 0
BBX 9 13 0 -2
BITMAP
0000
0000
0F00
0F00
3F80
1E00
1E00
1E00
7F00
3C00
3C00
0000
0000
ENDCHAR
STARTCHAR dollar
ENCODING 36
SWIDTH 692 0
DWIDTH 9 0
BBX 9 13 0 -2
BITMAP
0000
0000
0C00
1E00
3300
3000
1E00
0300
3300
1E00
0C00
0000
0000
ENDCHAR
STARTCHAR percent
ENCODING 37
SWIDTH 692 0
DWIDTH 9 0
BBX 9 13 0 -2
BITMAP
0000
0000
3000
7980
3300
0600
0C00
1800
3300
6780
0300
0000
0000
ENDCHAR
STARTCHAR ampersand
ENCODING 38
SWIDTH 692 0
DWIDTH 9 0
BBX 9 13 0 -2
BITMAP
0000
0000
1C00
3000
3000
1800
3800
6D80
6F00
6600
3F80
0000
0000
ENDCHAR
STARTCHAR quoteright
ENCODING 39
SWIDTH 692 0
DWIDTH 9 0
BBX 9 13 0 -2
BITMAP
0000
0000
0C00
0C00
0C00
0000
0000
0000
0000
0000
0000
0000
0000
ENDCHAR
STARTCHAR parenleft
ENCODING 40
SWIDTH 692 0
DWIDTH 9 0
BBX 9 13 0 -2
BITMAP
0000
0000
0600
0C00
0C00
1800
1800
1800
1800
1800
0C00
0C00
0600
ENDCHAR
STARTCHAR parenright
ENCODING 41
SWIDTH 692 0
DWIDTH 9 0
BBX 9 13 0 -2
BITMAP
0000
0000
1800
0C00
0C00
0600
0600
0600
0600
0600
0C00
0C00
1800
ENDCHAR
STARTCHAR asterisk
ENCODING 42
SWIDTH 692 0
DWIDTH 9 0
BBX 9 13 0 -2
BITMAP
0000
0000
0000
0000
3F00
1E00
7F80
1E00
3F00
0000
0000
0000
0000
ENDCHAR
STARTCHAR plus
ENCODING 43
SWIDTH 692 0
DWIDTH 9 0
BBX 9 13 0 -2
BITMAP
0000
0000
0000
0000
0C00
0C00
0C00
7F80
0C00
0C00
0C00
0000
0000
ENDCHAR
STARTCHAR comma
ENCODING 44
SWIDTH 692 0
DWIDTH 9 0
BBX 9 13 0 -2
BITMAP
0000
0000
0000
0000
0000
0000
0000
0000
0000
0000
0C00
1800
0000
ENDCHAR
STARTCHAR minus
ENCODING 45
SWIDTH 692 0
DWIDTH 9 0
BBX 9 13 0 -2
BITMAP
0000
0000
0000
0000
0000
0000
0000
7F80
0000
0000
0000
0000
0000
ENDCHAR
STARTCHAR period
ENCODING 46
SWIDTH 692 0
DWIDTH 9 0
BBX 9 13 0 -2
BITMAP
0000
0000
0000
0000
0000
0000
0000
0000
0000
0000
0C00
0000
0000
ENDCHAR
STARTCHAR slash
ENCODING 47
SWIDTH 692 0
DWIDTH 9 0
BBX 9 13 0 -2
BITMAP
0000
0000
0000
0180
0300
0600
0C00
1800
3000
6000
0000
0000
0000
ENDCHAR
STARTCHAR zero
ENCODING 48
SWIDTH 692 0
DWIDTH 9 0
BBX 9 13 0 -2
BITMAP
0000
0000
1E00
3300
3300
3300
3300
3300
3300
3300
1E00
0000
0000
ENDCHAR
STARTCHAR one
ENCODING 49
SWIDTH 692 0
DWIDTH 9 0
BBX 9 13 0 -2
BITMAP
0000
0000
0C00
3C00
0C00
0C00
0C00
0C00
0C00
0C00
3F00
0000
0000
ENDCHAR
STARTCHAR two
ENCODING 50
SWIDTH 692 0
DWIDTH 9 0
BBX 9 13 0 -2
BITMAP
0000
0000
1E00
3300
0300
0300
0600
0C00
1800
3000
3F00
0000
0000
ENDCHAR
STARTCHAR three
ENCODING 51
SWIDTH 692 0
DWIDTH 9 0
BBX 9 13 0 -2
BITMAP
0000
0000
1E00
3300
0300
0300
0E00
0300
0300
3300
1E00
0000
0000
ENDCHAR
STARTCHAR four
ENCODING 52
SWIDTH 692 0
DWIDTH 9 0
BBX 9 13 0 -2
BITMAP
0000
0000
0600
0E00
0E00
1E00
1E00
3600
3F00
0600
0F00
0000
0000
ENDCHAR
STARTCHAR five
ENCODING 53
SWIDTH 692 0
DWIDTH 9 0
BBX 9 13 0 -2
BITMAP
0000
0000
3F00
3000
3000
3000
3E00
0300
0300
3300
1E00
0000
0000
ENDCHAR
STARTCHAR six
ENCODING 54
SWIDTH 692 0
DWIDTH 9 0
BBX 9 13 0 -2
BITMAP
0000
0000
0E00
1800
3000
3000
3E00
3300
3300
3300
1E00
0000
0000
ENDCHAR
STARTCHAR seven
ENCODING 55
SWIDTH 692 0
DWIDTH 9 0
BBX 9 13 0 -2
BITMAP
0000
0000
3F00
3300
0300
0600
0600
0C00
0C00
1800
1800
0000
0000
ENDCHAR
STARTCHAR eight
ENCODING 56
SWIDTH 692 0
DWIDTH 9 0
BBX 9 13 0 -2
BITMAP
0000
0000
1E00
3300
3300
3300
1E00
3300
3300
3300
1E00
0000
0000
ENDCHAR
STARTCHAR nine
ENCODING 57
SWIDTH 692 0
DWIDTH 9 0
BBX 9 13 0 -2
BITMAP
0000
0000
1E00
3300
3300
3300
1F00
0300
0300
0600
1C00
0000
0000
ENDCHAR
STARTCHAR colon
ENCODING 58
SWIDTH 692 0
DWIDTH 9 0
BBX 9 13 0 -2
BITMAP
0000
0000
0000
0000
0000
0C00
0000
0000
0000
0000
0C00
0000
0000
ENDCHAR
STARTCHAR semicolon
ENCODING 59
SWIDTH 692 0
DWIDTH 9 0
BBX 9 13 0 -2
BITMAP
0000
0000
0000
0000
0000
0C00
0000
0000
0000
0000
0C00
1800
0000
ENDCHAR
STARTCHAR less
ENCODING 60
SWIDTH 692 0
DWIDTH 9 0
BBX 9 13 0 -2
BITMAP
0000
0000
0000
0000
0600
0C00
1800
3000
1800
0C00
0600
0000
0000
ENDCHAR
STARTCHAR equal
ENCODING 61
SWIDTH 692 0
DWIDTH 9 0
BBX 9 13 0 -2
BITMAP
0000
0000
0000
0000
0000
3F00
0000
3F00
0000
0000
0000
0000
0000
ENDCHAR
STARTCHAR greater
ENCODING 62
SWIDTH 692 0
DWIDTH 9 0
BBX 9 13 0 -2
BITMAP
0000
0000
0000
0000
1800
0C00
0600
0300
0600
0C00
1800
0000
0000
ENDCHAR
STARTCHAR question
ENCODING 63
SWIDTH 692 0
DWIDTH 9 0
BBX 9 13 0 -2
BITMAP
0000
0000
1E00
3300
0300
0300
0600
0C00
0C00
0000
0C00
0000
0000
ENDCHAR
STARTCHAR at
ENCODING 64
SWIDTH 692 0
DWIDTH 9 0
BBX 9 13 0 -2
BITMAP
0000
0000
1F00
3180
6F80
7F80
7F80
7F80
6F00
3000
1E00
0000
0000
ENDCHAR
STARTCHAR A
ENCODING 65
SWIDTH 692 0
DWIDTH 9 0
BBX 9 13 0 -2
BITMAP
0000
0000
1C00
0C00
0C00
1E00
1E00
3300
3F00
3300
7F80
0000
0000
ENDCHAR
STARTCHAR B
ENCODING 66
SWIDTH 692 0
DWIDTH 9 0
BBX 9 13 0 -2
BITMAP
0000
0000
7F00
3180
3180
3180
3F00
3180
3180
3180
7F00
0000
0000
ENDCHAR
STARTCHAR C
ENCODING 67
SWIDTH 692 0
DWIDTH 9 0
BBX 9 13 0 -2
BITMAP
0000
0000
1F00
3180
6000
6000
6000
6000
6000
3180
1F00
0000
0000
ENDCHAR
STARTCHAR D
ENCODING 68
SWIDTH 692 0
DWIDTH 9 0
BBX 9 13 0 -2
BITMAP
0000
0000
7E00
3300
3180
3180
3180
3180
3180
3300
7E00
0000
0000
ENDCHAR
STARTCHAR E
ENCODING 69
SWIDTH 692 0
DWIDTH 9 0
BBX 9 13 0 -2
BITMAP
0000
0000
7F80
3180
3000
3600
3E00
3600
3000
3180
7F80
0000
0000
ENDCHAR
STARTCHAR F
ENCODING 70
SWIDTH 692 0
DWIDTH 9 0
BBX 9 13 0 -2
BITMAP
0000
0000
7F80
3180
3000
3600
3E00
3600
3000
3000
7C00
0000
0000
ENDCHAR
STARTCHAR G
ENCODING 71
SWIDTH 692 0
DWIDTH 9 0
BBX 9 13 0 -2
BITMAP
0000
0000
1F00
3180
6000
6000
6000
6780
6180
3180
1F00
0000
0000
ENDCHAR
STARTCHAR H
ENCODING 72
SWIDTH 692 0
DWIDTH 9 0
BBX 9 13 0 -2
BITMAP
0000
0000
7F80
3300
3300
3300
3F00
3300
3300
3300
7F80
0000
0000
ENDCHAR
STARTCHAR I
ENCODING 73
SWIDTH 692 0
DWIDTH 9 0
BBX 9 13 0 -2
BITMAP
0000
0000
3F00
0C00
0C00
0C00
0C00
0C00
0C00
0C00
3F00
0000
0000
ENDCHAR
STARTCHAR J
ENCODING 74
SWIDTH 692 0
DWIDTH 9 0
BBX 9 13 0 -2
BITMAP
0000
0000
1F00
0600
0600
0600
0600
0600
6600
6600
3C00
0000
0000
ENDCHAR
STARTCHAR K
ENCODING 75
SWIDTH 692 0
DWIDTH 9 0
BBX 9 13 0 -2
BITMAP
0000
0000
7B80
3300
3600
3600
3C00
3C00
3600
3300
7B80
0000
0000
ENDCHAR
STARTCHAR L
ENCODING 76
SWIDTH 692 0
DWIDTH 9 0
BBX 9 13 0 -2
BITMAP
0000
0000
7E00
1800
1800
1800
1800
1800
1800
1980
7F80
0000
0000
ENDCHAR
STARTCHAR M
ENCODING 77
SWIDTH 692 0
DWIDTH 9 0
BBX 9 13 0 -2
BITMAP
0000
0000
7380
3300
3F00
3F00
3F00
3F00
3300
3300
7F80
0000
0000
ENDCHAR
STARTCHAR N
ENCODING 78
SWIDTH 692 0
DWIDTH 9 0
BBX 9 13 0 -2
BITMAP
0000
0000
7780
3300
3B00
3B00
3F00
3700
3700
3300
7B00
0000
0000
ENDCHAR
STARTCHAR O
ENCODING 79
SWIDTH 692 0
DWIDTH 9 0
BBX 9 13 0 -2
BITMAP
0000
0000
1E00
3300
6180
6180
6180
6180
6180
3300
1E00
0000
0000
ENDCHAR
STARTCHAR P
ENCODING 80
SWIDTH 692 0
DWIDTH 9 0
BBX 9 13 0 -2
BITMAP
0000
0000
7F00
3180
3180
3180
3F00
3000
3000
3000
7C00
0000
0000
ENDCHAR
STARTCHAR Q
ENCODING 81
SWIDTH 692 0
DWIDTH 9 0
BBX 9 13 0 -2
BITMAP
0000
0000
1E00
3300
6180
6180
6180
6180
6180
3300
1E00
1F80
0000
ENDCHAR
STARTCHAR R
ENCODING 82
SWIDTH 692 0
DWIDTH 9 0
BBX 9 13 0 -2
BITMAP
0000
0000
7F00
3180
3180
3180
3F00
3600
3600
3300
7B80
0000
0000
ENDCHAR
STARTCHAR S
ENCODING 83
SWIDTH 692 0
DWIDTH 9 0
BBX 9 13 0 -2
BITMAP
0000
0000
3F00
6180
6000
6000
3F00
0180
0180
6180
3F00
0000
0000
ENDCHAR
STARTCHAR T
ENCODING 84
SWIDTH 692 0
DWIDTH 9 0
BBX 9 13 0 -2
BITMAP
0000
0000
7F80
6D80
0C00
0C00
0C00
0C00
0C00
0C00
1E00
0000
0000
ENDCHAR
STARTCHAR U
ENCODING 85
SWIDTH 692 0
DWIDTH 9 0
BBX 9 13 0 -2
BITMAP
0000
0000
7F80
3300
3300
3300
3300
3300
3300
3300
1E00
0000
0000
ENDCHAR
STARTCHAR V
ENCODING 86
SWIDTH 692 0
DWIDTH 9 0
BBX 9 13 0 -2
BITMAP
0000
0000
7F80
3300
3300
3300
1E00
1E00
1E00
0C00
0C00
0000
0000
ENDCHAR
STARTCHAR W
ENCODING 87
SWIDTH 692 0
DWIDTH 9 0
BBX 9 13 0 -2
BITMAP
0000
0000
7F80
3300
3300
3300
3F00
3F00
3F00
1E00
1E00
0000
0000
ENDCHAR
STARTCHAR X
ENCODING 88
SWIDTH 692 0
DWIDTH 9 0
BBX 9 13 0 -2
BITMAP
0000
0000
7F80
3300
1E00
1E00
0C00
1E00
1E00
3300
7F80
0000
0000
ENDCHAR
STARTCHAR Y
ENCODING 89
SWIDTH 692 0
DWIDTH 9 0
BBX 9 13 0 -2
BITMAP
0000
0000
7F80
3300
3300
1E00
1E00
0C00
0C00
0C00
1E00
0000
0000
ENDCHAR
STARTCHAR Z
ENCODING 90
SWIDTH 692 0
DWIDTH 9 0
BBX 9 13 0 -2
BITMAP
0000
0000
7F80
6300
0600
0600
0C00
1800
1800
3180
7F80
0000
0000
ENDCHAR
STARTCHAR bracketleft
ENCODING 91
SWIDTH 692 0
DWIDTH 9 0
BBX 9 13 0 -2
BITMAP
0000
0000
1E00
1800
1800
1800
1800
1800
1800
1800
1800
1800
1E00
ENDCHAR
STARTCHAR backslash
ENCODING 92
SWIDTH 692 0
DWIDTH 9 0
BBX 9 13 0 -2
BITMAP
0000
0000
0000
6000
3000
1800
0C00
0600
0300
0180
0000
0000
0000
ENDCHAR
STARTCHAR bracketright
ENCODING 93
SWIDTH 692 0
DWIDTH 9 0
BBX 9 13 0 -2
BITMAP
0000
0000
0000
1E00
0600
0600
0600
0600
0600
0600
0600
0600
1E00
ENDCHAR
STARTCHAR asciicircum
ENCODING 94
SWIDTH 692 0
DWIDTH 9 0
BBX 9 13 0 -2
BITMAP
0000
0C00
1E00
3300
0000
0000
0000
0000
0000
0000
0000
0000
0000
ENDCHAR
STARTCHAR underscore
ENCODING 95
SWIDTH 692 0
DWIDTH 9 0
BBX 9 13 0 -2
BITMAP
0000
0000
0000
0000
0000
0000
0000
0000
0000
0000
0000
0000
FF80
ENDCHAR
STARTCHAR quoteleft
ENCODING 96
SWIDTH 692 0
DWIDTH 9 0
BBX 9 13 0 -2
BITMAP
0000
0000
1800
0C00
0000
0000
0000
0000
0000
0000
0000
0000
0000
ENDCHAR
STARTCHAR a
ENCODING 97
SWIDTH 692 0
DWIDTH 9 0
BBX 9 13 0 -2
BITMAP
0000
0000
0000
0000
0000
3E00
0300
3F00
6300
6300
3F80
0000
0000
ENDCHAR
STARTCHAR b
ENCODING 98
SWIDTH 692 0
DWIDTH 9 0
BBX 9 13 0 -2
BITMAP
0000
0000
7000
3000
3000
3F00
3180
3180
3180
3180
7F00
0000
0000
ENDCHAR
STARTCHAR c
ENCODING 99
SWIDTH 692 0
DWIDTH 9 0
BBX 9 13 0 -2
BITMAP
0000
0000
0000
0000
0000
3F00
6180
6000
6000
6180
3F00
0000
0000
ENDCHAR
STARTCHAR d
ENCODING 100
SWIDTH 692 0
DWIDTH 9 0
BBX 9 13 0 -2
BITMAP
0000
0000
0700
0300
0300
3F00
6300
6300
6300
6300
3F80
0000
0000
ENDCHAR
STARTCHAR e
ENCODING 101
SWIDTH 692 0
DWIDTH 9 0
BBX 9 13 0 -2
BITMAP
0000
0000
0000
0000
0000
3F00
6180
7F80
6000
6180
3F00
0000
0000
ENDCHAR
STARTCHAR f
ENCODING 102
SWIDTH 692 0
DWIDTH 9 0
BBX 9 13 0 -2
BITMAP
0000
0000
0E00
1800
1800
3E00
1800
1800
1800
1800
3E00
0000
0000
ENDCHAR
STARTCHAR g
ENCODING 103
SWIDTH 692 0
DWIDTH 9 0
BBX 9 13 0 -2
BITMAP
0000
0000
0000
0000
0000
3F80
6300
6300
6300
3F00
0300
0300
3E00
ENDCHAR
STARTCHAR h
ENCODING 104
SWIDTH 692 0
DWIDTH 9 0
BBX 9 13 0 -2
BITMAP
0000
0000
7000
3000
3000
3E00
3B00
3300
3300
3300
7F80
0000
0000
ENDCHAR
STARTCHAR i
ENCODING 105
SWIDTH 692 0
DWIDTH 9 0
BBX 9 13 0 -2
BITMAP
0000
0000
0C00
0000
0000
3C00
0C00
0C00
0C00
0C00
3F00
0000
0000
ENDCHAR
STARTCHAR j
ENCODING 106
SWIDTH 692 0
DWIDTH 9 0
BBX 9 13 0 -2
BITMAP
0000
0000
0600
0000
0000
3E00
0600
0600
0600
0600
0600
0600
3C00
ENDCHAR
STARTCHAR k
ENCODING 107
SWIDTH 692 0
DWIDTH 9 0
BBX 9 13 0 -2
BITMAP
0000
0000
7000
3000
3000
3700
3600
3C00
3C00
3600
7380
0000
0000
ENDCHAR
STARTCHAR l
ENCODING 108
SWIDTH 692 0
DWIDTH 9 0
BBX 9 13 0 -2
BITMAP
0000
0000
1C00
0C00
0C00
0C00
0C00
0C00
0C00
0C00
3F00
0000
0000
ENDCHAR
STARTCHAR m
ENCODING 109
SWIDTH 692 0
DWIDTH 9 0
BBX 9 13 0 -2
BITMAP
0000
0000
0000
0000
0000
7E00
3F00
3F00
3F00
3F00
7F80
0000
0000
ENDCHAR
STARTCHAR n
ENCODING 110
SWIDTH 692 0
DWIDTH 9 0
BBX 9 13 0 -2
BITMAP
0000
0000
0000
0000
0000
7E00
3B00
3300
3300
3300
7F80
0000
0000
ENDCHAR
STARTCHAR o
ENCODING 111
SWIDTH 692 0
DWIDTH 9 0
BBX 9 13 0 -2
BITMAP
0000
0000
0000
0000
0000
3F00
6180
6180
6180
6180
3F00
0000
0000
ENDCHAR
STARTCHAR p
ENCODING 112
SWIDTH 692 0
DWIDTH 9 0
BBX 9 13 0 -2
BITMAP
0000
0000
0000
0000
0000
7F00
3180
3180
3180
3180
3F00
3000
7800
ENDCHAR
STARTCHAR q
ENCODING 113
SWIDTH 692 0
DWIDTH 9 0
BBX 9 13 0 -2
BITMAP
0000
0000
0000
0000
0000
3F80
6300
6300
6300
6300
3F00
0300
0780
ENDCHAR
STARTCHAR r
ENCODING 114
SWIDTH 692 0
DWIDTH 9 0
BBX 9 13 0 -2
BITMAP
0000
0000
0000
0000
0000
7F00
1D80
1800
1800
1800
7E00
0000
0000
ENDCHAR
STARTCHAR s
ENCODING 115
SWIDTH 692 0
DWIDTH 9 0
BBX 9 13 0 -2
BITMAP
0000
0000
0000
0000
0000
3F00
6180
3C00
0700
6180
3F00
0000
0000
ENDCHAR
STARTCHAR t
ENCODING 116
SWIDTH 692 0
DWIDTH 9 0
BBX 9 13 0 -2
BITMAP
0000
0000
0000
1800
1800
3E00
1800
1800
1800
1B00
0E00
0000
0000
ENDCHAR
STARTCHAR u
ENCODING 117
SWIDTH 692 0
DWIDTH 9 0
BBX 9 13 0 -2
BITMAP
0000
0000
0000
0000
0000
7700
3300
3300
3300
3700
1F80
0000
0000
ENDCHAR
STARTCHAR v
ENCODING 118
SWIDTH 692 0
DWIDTH 9 0
BBX 9 13 0 -2
BITMAP
0000
0000
0000
0000
0000
7F80
3300
3300
1E00
1E00
0C00
0000
0000
ENDCHAR
STARTCHAR w
ENCODING 119
SWIDTH 692 0
DWIDTH 9 0
BBX 9 13 0 -2
BITMAP
0000
0000
0000
0000
0000
7F80
3300
3F00
3F00
1E00
1E00
0000
0000
ENDCHAR
STARTCHAR x
ENCODING 120
SWIDTH 692 0
DWIDTH 9 0
BBX 9 13 0 -2
BITMAP
0000
0000
0000
0000
0000
7F80
3300
1E00
1E00
3300
7F80
0000
0000
ENDCHAR
STARTCHAR y
ENCODING 121
SWIDTH 692 0
DWIDTH 9 0
BBX 9 13 0 -2
BITMAP
0000
0000
0000
0000
0000
7F80
3300
3300
1E00
1E00
0C00
0C00
3800
ENDCHAR
STARTCHAR z
ENCODING 122
SWIDTH 692 0
DWIDTH 9 0
BBX 9 13 0 -2
BITMAP
0000
0000
0000
0000
0000
7F00
6600
0C00
1800
3300
7F00
0000
0000
ENDCHAR
STARTCHAR braceleft
ENCODING 123
SWIDTH 692 0
DWIDTH 9 0
BBX 9 13 0 -2
BITMAP
0000
0000
0700
0C00
0C00
0C00
0C00
3800
0C00
0C00
0C00
0C00
0700
ENDCHAR
STARTCHAR bar
ENCODING 124
SWIDTH 692 0
DWIDTH 9 0
BBX 9 13 0 -2
BITMAP
0000
0C00
0C00
0C00
0C00
0C00
0C00
0C00
0C00
0C00
0C00
0C00
0C00
ENDCHAR
STARTCHAR braceright
ENCODING 125
SWIDTH 692 0
DWIDTH 9 0
BBX 9 13 0 -2
BITMAP
0000
0000
3800
0C00
0C00
0C00
0C00
0700
0C00
0C00
0C00
0C00
3800
ENDCHAR
STARTCHAR asciitilde
ENCODING 126
SWIDTH 692 0
DWIDTH 9 0
BBX 9 13 0 -2
BITMAP
0000
0000
0000
3980
6D80
6700
0000
0000
0000
0000
0000
0000
0000
ENDCHAR
STARTCHAR C177
ENCODING -1
SWIDTH 692 0
DWIDTH 9 0
BBX 9 13 0 -2
BITMAP
0000
0000
0000
1E00
1E00
1E00
1E00
1E00
1E00
1E00
1E00
1E00
0000
ENDCHAR
STARTCHAR C200
ENCODING -1
SWIDTH 692 0
DWIDTH 9 0
BBX 9 13 0 -2
BITMAP
0000
0000
0000
1E00
1E00
1E00
1E00
1E00
1E00
1E00
1E00
1E00
0000
ENDCHAR
STARTCHAR C201
ENCODING -1
SWIDTH 692 0
DWIDTH 9 0
BBX 9 13 0 -2
BITMAP
0000
0000
0000
1E00
1E00
1E00
1E00
1E00
1E00
1E00
1E00
1E00
0000
ENDCHAR
STARTCHAR C202
ENCODING -1
SWIDTH 692 0
DWIDTH 9 0
BBX 9 13 0 -2
BITMAP
0000
0000
0000
1E00
1E00
1E00
1E00
1E00
1E00
1E00
1E00
1E00
0000
ENDCHAR
STARTCHAR C203
ENCODING -1
SWIDTH 692 0
DWIDTH 9 0
BBX 9 13 0 -2
BITMAP
0000
0000
0000
1E00
1E00
1E00
1E00
1E00
1E00
1E00
1E00
1E00
0000
ENDCHAR
STARTCHAR C204
ENCODING -1
SWIDTH 692 0
DWIDTH 9 0
BBX 9 13 0 -2
BITMAP
0000
0000
0000
1E00
1E00
1E00
1E00
1E00
1E00
1E00
1E00
1E00
0000
ENDCHAR
STARTCHAR C205
ENCODING -1
SWIDTH 692 0
DWIDTH 9 0
BBX 9 13 0 -2
BITMAP
0000
0000
0000
1E00
1E00
1E00
1E00
1E00
1E00
1E00
1E00
1E00
0000
ENDCHAR
STARTCHAR C206
ENCODING -1
SWIDTH 692 0
DWIDTH 9 0
BBX 9 13 0 -2
BITMAP
0000
0000
0000
1E00
1E00
1E00
1E00
1E00
1E00
1E00
1E00
1E00
0000
ENDCHAR
STARTCHAR C207
ENCODING -1
SWIDTH 692 0
DWIDTH 9 0
BBX 9 13 0 -2
BITMAP
0000
0000
0000
1E00
1E00
1E00
1E00
1E00
1E00
1E00
1E00
1E00
0000
ENDCHAR
STARTCHAR C210
ENCODING -1
SWIDTH 692 0
DWIDTH 9 0
BBX 9 13 0 -2
BITMAP
0000
0000
0000
1E00
1E00
1E00
1E00
1E00
1E00
1E00
1E00
1E00
0000
ENDCHAR
STARTCHAR C211
ENCODING -1
SWIDTH 692 0
DWIDTH 9 0
BBX 9 13 0 -2
BITMAP
0000
0000
0000
1E00
1E00
1E00
1E00
1E00
1E00
1E00
1E00
1E00
0000
ENDCHAR
STARTCHAR C212
ENCODING -1
SWIDTH 692 0
DWIDTH 9 0
BBX 9 13 0 -2
BITMAP
0000
0000
0000
1E00
1E00
1E00
1E00
1E00
1E00
1E00
1E00
1E00
0000
ENDCHAR
STARTCHAR C213
ENCODING -1
SWIDTH 692 0
DWIDTH 9 0
BBX 9 13 0 -2
BITMAP
0000
0000
0000
1E00
1E00
1E00
1E00
1E00
1E00
1E00
1E00
1E00
0000
ENDCHAR
STARTCHAR C214
ENCODING -1
SWIDTH 692 0
DWIDTH 9 0
BBX 9 13 0 -2
BITMAP
0000
0000
0000
1E00
1E00
1E00
1E00
1E00
1E00
1E00
1E00
1E00
0000
ENDCHAR
STARTCHAR C215
ENCODING -1
SWIDTH 692 0
DWIDTH 9 0
BBX 9 13 0 -2
BITMAP
0000
0000
0000
1E00
1E00
1E00
1E00
1E00
1E00
1E00
1E00
1E00
0000
ENDCHAR
STARTCHAR C216
ENCODING -1
SWIDTH 692 0
DWIDTH 9 0
BBX 9 13 0 -2
BITMAP
0000
0000
0000
1E00
1E00
1E00
1E00
1E00
1E00
1E00
1E00
1E00
0000
ENDCHAR
STARTCHAR C217
ENCODING -1
SWIDTH 692 0
DWIDTH 9 0
BBX 9 13 0 -2
BITMAP
0000
0000
0000
1E00
1E00
1E00
1E00
1E00
1E00
1E00
1E00
1E00
0000
ENDCHAR
STARTCHAR C220
ENCODING -1
SWIDTH 692 0
DWIDTH 9 0
BBX 9 13 0 -2
BITMAP
0000
0000
0000
1E00
1E00
1E00
1E00
1E00
1E00
1E00
1E00
1E00
0000
ENDCHAR
STARTCHAR C221
ENCODING -1
SWIDTH 692 0
DWIDTH 9 0
BBX 9 13 0 -2
BITMAP
0000
0000
0C00
1800
0000
0000
0000
0000
0000
0000
0000
0000
0000
ENDCHAR
STARTCHAR C222
ENCODING -1
SWIDTH 692 0
DWIDTH 9 0
BBX 9 13 0 -2
BITMAP
0000
0000
0C00
1800
0000
0000
0000
0000
0000
0000
0000
0000
0000
ENDCHAR
STARTCHAR C223
ENCODING -1
SWIDTH 692 0
DWIDTH 9 0
BBX 9 13 0 -2
BITMAP
0000
0000
0000
1E00
1E00
1E00
1E00
1E00
1E00
1E00
1E00
1E00
0000
ENDCHAR
STARTCHAR C224
ENCODING -1
SWIDTH 692 0
DWIDTH 9 0
BBX 9 13 0 -2
BITMAP
0000
0000
0000
1E00
1E00
1E00
1E00
1E00
1E00
1E00
1E00
1E00
0000
ENDCHAR
STARTCHAR C225
ENCODING -1
SWIDTH 692 0
DWIDTH 9 0
BBX 9 13 0 -2
BITMAP
0000
0000
0000
1E00
1E00
1E00
1E00
1E00
1E00
1E00
1E00
1E00
0000
ENDCHAR
STARTCHAR C226
ENCODING -1
SWIDTH 692 0
DWIDTH 9 0
BBX 9 13 0 -2
BITMAP
0000
0000
0000
1E00
1E00
1E00
1E00
1E00
1E00
1E00
1E00
1E00
0000
ENDCHAR
STARTCHAR C227
ENCODING -1
SWIDTH 692 0
DWIDTH 9 0
BBX 9 13 0 -2
BITMAP
0000
0000
0000
1E00
1E00
1E00
1E00
1E00
1E00
1E00
1E00
1E00
0000
ENDCHAR
STARTCHAR C230
ENCODING -1
SWIDTH 692 0
DWIDTH 9 0
BBX 9 13 0 -2
BITMAP
0000
0000
0000
1E00
1E00
1E00
1E00
1E00
1E00
1E00
1E00
1E00
0000
ENDCHAR
STARTCHAR C231
ENCODING -1
SWIDTH 692 0
DWIDTH 9 0
BBX 9 13 0 -2
BITMAP
0000
0000
0000
1E00
1E00
1E00
1E00
1E00
1E00
1E00
1E00
1E00
0000
ENDCHAR
STARTCHAR C232
ENCODING -1
SWIDTH 692 0
DWIDTH 9 0
BBX 9 13 0 -2
BITMAP
0000
0000
0000
1E00
1E00
1E00
1E00
1E00
1E00
1E00
1E00
1E00
0000
ENDCHAR
STARTCHAR C233
ENCODING -1
SWIDTH 692 0
DWIDTH 9 0
BBX 9 13 0 -2
BITMAP
0000
0000
0000
1E00
1E00
1E00
1E00
1E00
1E00
1E00
1E00
1E00
0000
ENDCHAR
STARTCHAR C234
ENCODING -1
SWIDTH 692 0
DWIDTH 9 0
BBX 9 13 0 -2
BITMAP
0000
0000
0000
1E00
1E00
1E00
1E00
1E00
1E00
1E00
1E00
1E00
0000
ENDCHAR
STARTCHAR C235
ENCODING -1
SWIDTH 692 0
DWIDTH 9 0
BBX 9 13 0 -2
BITMAP
0000
0000
0000
1E00
1E00
1E00
1E00
1E00
1E00
1E00
1E00
1E00
0000
ENDCHAR
STARTCHAR C236
ENCODING -1
SWIDTH 692 0
DWIDTH 9 0
BBX 9 13 0 -2
BITMAP
0000
0000
0000
1E00
1E00
1E00
1E00
1E00
1E00
1E00
1E00
1E00
0000
ENDCHAR
STARTCHAR C237
ENCODING -1
SWIDTH 692 0
DWIDTH 9 0
BBX 9 13 0 -2
BITMAP
0000
0000
0000
1E00
1E00
1E00
1E00
1E00
1E00
1E00
1E00
1E00
0000
ENDCHAR
STARTCHAR C240
ENCODING 160
SWIDTH 692 0
DWIDTH 9 0
BBX 9 13 0 -2
BITMAP
0000
0000
0000
0000
0000
0000
0000
0000
0000
0000
0000
0000
0000
ENDCHAR
STARTCHAR exclamdown
ENCODING 161
SWIDTH 692 0
DWIDTH 9 0
BBX 9 13 0 -2
BITMAP
3F00
0000
7F80
3180
3000
3600
3E00
3600
3000
3180
7F80
0000
0000
ENDCHAR
STARTCHAR cent
ENCODING 162
SWIDTH 692 0
DWIDTH 9 0
BBX 9 13 0 -2
BITMAP
0000
0000
0000
0000
0C00
1E00
3300
3000
3300
1E00
0C00
0000
0000
ENDCHAR
STARTCHAR sterling
ENCODING 184
SWIDTH 692 0
DWIDTH 9 0
BBX 9 13 0 -2
BITMAP
0000
0000
0000
1C00
3600
3000
1800
3E00
1800
1800
3F00
0000
0000
ENDCHAR
STARTCHAR currency
ENCODING 164
SWIDTH 692 0
DWIDTH 9 0
BBX 9 13 0 -2
BITMAP
0000
0000
6180
3F00
3300
3300
3300
3F00
6180
0000
0000
0000
0000
ENDCHAR
STARTCHAR yen
ENCODING 165
SWIDTH 692 0
DWIDTH 9 0
BBX 9 13 0 -2
BITMAP
0000
0000
0000
7F80
3300
7F80
1E00
7F80
0C00
0C00
1E00
0000
0000
ENDCHAR
STARTCHAR brokenbar
ENCODING 166
SWIDTH 692 0
DWIDTH 9 0
BBX 9 13 0 -2
BITMAP
0000
0000
0C00
0C00
0C00
0C00
0C00
0000
0C00
0C00
0C00
0C00
0C00
ENDCHAR
STARTCHAR section
ENCODING 167
SWIDTH 692 0
DWIDTH 9 0
BBX 9 13 0 -2
BITMAP
0000
0000
1F00
3300
7800
6C00
3600
1B00
0F00
6600
7C00
0000
0000
ENDCHAR
STARTCHAR dieresis
ENCODING 168
SWIDTH 692 0
DWIDTH 9 0
BBX 9 13 0 -2
BITMAP
0000
0000
3300
0000
0000
0000
0000
0000
0000
0000
0000
0000
0000
ENDCHAR
STARTCHAR copyright
ENCODING 169
SWIDTH 692 0
DWIDTH 9 0
BBX 9 13 0 -2
BITMAP
0000
0000
1E00
3300
6F80
7980
7980
6F80
3300
1E00
0000
0000
0000
ENDCHAR
STARTCHAR ordfeminine
ENCODING 170
SWIDTH 692 0
DWIDTH 9 0
BBX 9 13 0 -2
BITMAP
0000
0000
1C00
0600
1E00
3600
1E00
0000
3E00
0000
0000
0000
0000
ENDCHAR
STARTCHAR guillemotleft
ENCODING 171
SWIDTH 692 0
DWIDTH 9 0
BBX 9 13 0 -2
BITMAP
0000
0000
0000
0000
0000
0000
1980
3300
6600
3300
1980
0000
0000
ENDCHAR
STARTCHAR logicalnot
ENCODING 172
SWIDTH 692 0
DWIDTH 9 0
BBX 9 13 0 -2
BITMAP
0000
0000
0000
0000
0000
3F00
0300
0000
0000
0000
0000
0000
0000
ENDCHAR
STARTCHAR hyphen
ENCODING 173
SWIDTH 692 0
DWIDTH 9 0
BBX 9 13 0 -2
BITMAP
0000
0000
0000
0000
0000
0000
0000
7F80
0000
0000
0000
0000
0000
ENDCHAR
STARTCHAR registered
ENCODING 174
SWIDTH 692 0
DWIDTH 9 0
BBX 9 13 0 -2
BITMAP
0000
0000
1E00
3300
7D80
7F80
7D80
7F80
3300
1E00
0000
0000
0000
ENDCHAR
STARTCHAR macron
ENCODING 175
SWIDTH 692 0
DWIDTH 9 0
BBX 9 13 0 -2
BITMAP
0000
FF80
0000
0000
0000
0000
0000
0000
0000
0000
0000
0000
0000
ENDCHAR
STARTCHAR degree
ENCODING 176
SWIDTH 692 0
DWIDTH 9 0
BBX 9 13 0 -2
BITMAP
0000
0000
0C00
1E00
0C00
0000
0000
0000
0000
0000
0000
0000
0000
ENDCHAR
STARTCHAR plusminus
ENCODING 177
SWIDTH 692 0
DWIDTH 9 0
BBX 9 13 0 -2
BITMAP
0000
0000
0C00
0C00
0C00
7F80
0C00
0C00
0C00
0000
7F80
0000
0000
ENDCHAR
STARTCHAR twosuperior
ENCODING 178
SWIDTH 692 0
DWIDTH 9 0
BBX 9 13 0 -2
BITMAP
0000
0000
0C00
1E00
0600
0C00
1E00
0000
0000
0000
0000
0000
0000
ENDCHAR
STARTCHAR threesuperior
ENCODING 168
SWIDTH 692 0
DWIDTH 9 0
BBX 9 13 0 -2
BITMAP
0000
0000
1C00
0600
0C00
0600
1C00
0000
0000
0000
0000
0000
0000
ENDCHAR
STARTCHAR acute
ENCODING 180
SWIDTH 692 0
DWIDTH 9 0
BBX 9 13 0 -2
BITMAP
0000
0000
0600
0C00
0000
0000
0000
0000
0000
0000
0000
0000
0000
ENDCHAR
STARTCHAR mu
ENCODING 181
SWIDTH 692 0
DWIDTH 9 0
BBX 9 13 0 -2
BITMAP
0000
0000
0000
0000
0000
3300
3300
3300
3300
3300
3E00
3000
6000
ENDCHAR
STARTCHAR paragraph
ENCODING 182
SWIDTH 692 0
DWIDTH 9 0
BBX 9 13 0 -2
BITMAP
0000
0000
3F80
7F00
7F00
7F00
3F00
0F00
0F00
0F00
1F80
0000
0000
ENDCHAR
STARTCHAR periodcentered
ENCODING 183
SWIDTH 692 0
DWIDTH 9 0
BBX 9 13 0 -2
BITMAP
0000
0000
0000
0000
0000
0000
0000
0C00
0000
0000
0000
0000
0000
ENDCHAR
STARTCHAR cedilla
ENCODING 184
SWIDTH 692 0
DWIDTH 9 0
BBX 9 13 0 -2
BITMAP
0000
0000
0000
0000
0000
0000
0000
0000
0000
0000
0C00
0600
1C00
ENDCHAR
STARTCHAR onesuperior
ENCODING 185
SWIDTH 692 0
DWIDTH 9 0
BBX 9 13 0 -2
BITMAP
0000
0000
1C00
0C00
0C00
0C00
1E00
0000
0000
0000
0000
0000
0000
ENDCHAR
STARTCHAR ordmasculine
ENCODING 186
SWIDTH 692 0
DWIDTH 9 0
BBX 9 13 0 -2
BITMAP
0000
0000
1C00
3600
3600
3600
1C00
0000
3E00
0000
0000
0000
0000
ENDCHAR
STARTCHAR guillemotright
ENCODING 187
SWIDTH 692 0
DWIDTH 9 0
BBX 9 13 0 -2
BITMAP
0000
0000
0000
0000
0000
0000
6600
3300
1980
3300
6600
0000
0000
ENDCHAR
STARTCHAR onequarter
ENCODING 188
SWIDTH 692 0
DWIDTH 9 0
BBX 9 13 0 -2
BITMAP
0000
0000
7000
3180
3300
3600
7D80
1B80
3780
6F80
0180
0000
0000
ENDCHAR
STARTCHAR onehalf
ENCODING 189
SWIDTH 692 0
DWIDTH 9 0
BBX 9 13 0 -2
BITMAP
0000
0000
7000
3180
3300
3600
7F00
1F80
3180
6300
0780
0000
0000
ENDCHAR
STARTCHAR threequarters
ENCODING 190
SWIDTH 692 0
DWIDTH 9 0
BBX 9 13 0 -2
BITMAP
0000
0000
7000
1980
3300
1E00
7D80
1B80
3780
6F80
0180
0000
0000
ENDCHAR
STARTCHAR questiondown
ENCODING 191
SWIDTH 692 0
DWIDTH 9 0
BBX 9 13 0 -2
BITMAP
0000
0000
0000
3F00
0000
3F00
6180
7F80
6000
6180
3F00
0000
0000
ENDCHAR
STARTCHAR cyr-A
ENCODING 192
SWIDTH 692 0
DWIDTH 9 0
BBX 9 13 0 -2
BITMAP
0000
0000
0C00
0C00
0C00
1E00
1E00
3300
3F00
3300
7F80
0000
0000
ENDCHAR
STARTCHAR cyr-Be
ENCODING 193
SWIDTH 692 0
DWIDTH 9 0
BBX 9 13 0 -2
BITMAP
0000
0000
7F80
3180
3000
3000
3F00
3180
3180
3180
7F00
0000
0000
ENDCHAR
STARTCHAR cyr-Ve
ENCODING 194
SWIDTH 692 0
DWIDTH 9 0
BBX 9 13 0 -2
BITMAP
0000
0000
7F00
3180
3180
3180
3F00
3180
3180
3180
7F00
0000
0000
ENDCHAR
STARTCHAR cyr-Ghe
ENCODING 195
SWIDTH 692 0
DWIDTH 9 0
BBX 9 13 0 -2
BITMAP
0000
0000
7F80
3180
3000
3000
3000
3000
3000
3000
7C00
0000
0000
ENDCHAR
STARTCHAR cyr-De
ENCODING 196
SWIDTH 692 0
DWIDTH 9 0
BBX 9 13 0 -2
BITMAP
0000
0000
3F80
1B00
1B00
1B00
1B00
1B00
1B00
3300
7F80
6180
0000
ENDCHAR
STARTCHAR cyr-Ie
ENCODING 197
SWIDTH 692 0
DWIDTH 9 0
BBX 9 13 0 -2
BITMAP
0000
0000
7F80
3180
3000
3600
3E00
3600
3000
3180
7F80
0000
0000
ENDCHAR
STARTCHAR cyr-Zhe
ENCODING 198
SWIDTH 692 0
DWIDTH 9 0
BBX 9 13 0 -2
BITMAP
0000
0000
7F80
3F00
3F00
3F00
1E00
3F00
3F00
3F00
7F80
0000
0000
ENDCHAR
STARTCHAR cyr-Ze
ENCODING 199
SWIDTH 692 0
DWIDTH 9 0
BBX 9 13 0 -2
BITMAP
0000
0000
7E00
7300
6300
0300
1E00
0300
6300
6300
3E00
0000
0000
ENDCHAR
STARTCHAR cyr-I
ENCODING 200
SWIDTH 692 0
DWIDTH 9 0
BBX 9 13 0 -2
BITMAP
0000
0000
7F80
3300
3300
3700
3F00
3F00
3B00
3300
7F80
0000
0000
ENDCHAR
STARTCHAR cyr-I-short
ENCODING 201
SWIDTH 692 0
DWIDTH 9 0
BBX 9 13 0 -2
BITMAP
1E00
0C00
7F80
3300
3300
3700
3F00
3F00
3B00
3300
7F80
0000
0000
ENDCHAR
STARTCHAR cyr-Ka
ENCODING 202
SWIDTH 692 0
DWIDTH 9 0
BBX 9 13 0 -2
BITMAP
0000
0000
7B80
3300
3600
3600
3C00
3C00
3600
3300
7B80
0000
0000
ENDCHAR
STARTCHAR cyr-El
ENCODING 203
SWIDTH 692 0
DWIDTH 9 0
BBX 9 13 0 -2
BITMAP
0000
0000
3F80
1B00
1B00
1B00
1B00
1B00
1B00
1B00
7780
0000
0000
ENDCHAR
STARTCHAR cyr-Em
ENCODING 204
SWIDTH 692 0
DWIDTH 9 0
BBX 9 13 0 -2
BITMAP
0000
0000
7380
3300
3F00
3F00
3F00
3F00
3300
3300
7F80
0000
0000
ENDCHAR
STARTCHAR cyr-En
ENCODING 205
SWIDTH 692 0
DWIDTH 9 0
BBX 9 13 0 -2
BITMAP
0000
0000
7F80
3300
3300
3300
3F00
3300
3300
3300
7F80
0000
0000
ENDCHAR
STARTCHAR cyr-O
ENCODING 206
SWIDTH 692 0
DWIDTH 9 0
BBX 9 13 0 -2
BITMAP
0000
0000
1E00
3300
6180
6180
6180
6180
6180
3300
1E00
0000
0000
ENDCHAR
STARTCHAR cyr-Pe
ENCODING 207
SWIDTH 692 0
DWIDTH 9 0
BBX 9 13 0 -2
BITMAP
0000
0000
7F80
3300
3300
3300
3300
3300
3300
3300
7F80
0000
0000
ENDCHAR
STARTCHAR cyr-Er
ENCODING 208
SWIDTH 692 0
DWIDTH 9 0
BBX 9 13 0 -2
BITMAP
0000
0000
7F00
3180
3180
3180
3F00
3000
3000
3000
7800
0000
0000
ENDCHAR
STARTCHAR cyr-Es
ENCODING 209
SWIDTH 692 0
DWIDTH 9 0
BBX 9 13 0 -2
BITMAP
0000
0000
1F80
3380
6180
6000
6000
6000
6180
3180
1F00
0000
0000
ENDCHAR
STARTCHAR cyr-Te
ENCODING 210
SWIDTH 692 0
DWIDTH 9 0
BBX 9 13 0 -2
BITMAP
0000
0000
7F80
6D80
0C00
0C00
0C00
0C00
0C00
0C00
1E00
0000
0000
ENDCHAR
STARTCHAR cyr-U
ENCODING 211
SWIDTH 692 0
DWIDTH 9 0
BBX 9 13 0 -2
BITMAP
0000
0000
7F80
3300
3300
1E00
1E00
0C00
0C00
6C00
3800
0000
0000
ENDCHAR
STARTCHAR cyr-Ef
ENCODING 212
SWIDTH 692 0
DWIDTH 9 0
BBX 9 13 0 -2
BITMAP
0000
0C00
1E00
3F00
6D80
6D80
6D80
6D80
3F00
1E00
0C00
0000
0000
ENDCHAR
STARTCHAR cyr-Kha
ENCODING 213
SWIDTH 692 0
DWIDTH 9 0
BBX 9 13 0 -2
BITMAP
0000
0000
7F80
3300
1E00
1E00
0C00
1E00
1E00
3300
7F80
0000
0000
ENDCHAR
STARTCHAR cyr-Tse
ENCODING 214
SWIDTH 692 0
DWIDTH 9 0
BBX 9 13 0 -2
BITMAP
0000
0000
7F80
3300
3300
3300
3300
3300
3300
3300
7F80
0180
0000
ENDCHAR
STARTCHAR cyr-Che
ENCODING 215
SWIDTH 692 0
DWIDTH 9 0
BBX 9 13 0 -2
BITMAP
0000
0000
7F80
3300
3300
3300
3700
1F00
0300
0300
0780
0000
0000
ENDCHAR
STARTCHAR cyr-Sha
ENCODING 216
SWIDTH 692 0
DWIDTH 9 0
BBX 9 13 0 -2
BITMAP
0000
0000
7F80
3F00
3F00
3F00
3F00
3F00
3F00
3F00
7F80
0000
0000
ENDCHAR
STARTCHAR cyr-Shcha
ENCODING 217
SWIDTH 692 0
DWIDTH 9 0
BBX 9 13 0 -2
BITMAP
0000
0000
7F80
3F00
3F00
3F00
3F00
3F00
3F00
3F00
7F80
0180
0000
ENDCHAR
STARTCHAR cyr-Ier
ENCODING 218
SWIDTH 692 0
DWIDTH 9 0
BBX 9 13 0 -2
BITMAP
0000
0000
7C00
7800
7800
1800
1F00
1980
1980
1980
3F00
0000
0000
ENDCHAR
STARTCHAR cyr-Iery
ENCODING 219
SWIDTH 692 0
DWIDTH 9 0
BBX 9 13 0 -2
BITMAP
0000
0000
F780
6300
6300
6300
7B00
6F00
6F00
6F00
FF80
0000
0000
ENDCHAR
STARTCHAR cyr-Ierik
ENCODING 220
SWIDTH 692 0
DWIDTH 9 0
BBX 9 13 0 -2
BITMAP
0000
0000
7800
3000
3000
3000
3F00
3180
3180
3180
7F00
0000
0000
ENDCHAR
STARTCHAR cyr-E-rev
ENCODING 221
SWIDTH 692 0
DWIDTH 9 0
BBX 9 13 0 -2
BITMAP
0000
0000
3C00
6600
0300
0300
3F00
0300
0300
6600
3C00
0000
0000
ENDCHAR
STARTCHAR cyr-Yu
ENCODING 222
SWIDTH 692 0
DWIDTH 9 0
BBX 9 13 0 -2
BITMAP
0000
0000
FF00
7980
7980
7980
7980
7980
7980
7980
FF00
0000
0000
ENDCHAR
STARTCHAR cyr-Ya
ENCODING 223
SWIDTH 692 0
DWIDTH 9 0
BBX 9 13 0 -2
BITMAP
0000
0000
3F80
6300
6300
6300
3F00
1B00
1B00
3300
7780
0000
0000
ENDCHAR
STARTCHAR cyr-a
ENCODING 224
SWIDTH 692 0
DWIDTH 9 0
BBX 9 13 0 -2
BITMAP
0000
0000
0000
0000
0000
3E00
0300
3F00
6300
6300
3F80
0000
0000
ENDCHAR
STARTCHAR cyr-be
ENCODING 225
SWIDTH 692 0
DWIDTH 9 0
BBX 9 13 0 -2
BITMAP
0000
0000
0180
1F00
3000
3F00
3180
3180
3180
3180
1F00
0000
0000
ENDCHAR
STARTCHAR cyr-ve
ENCODING 226
SWIDTH 692 0
DWIDTH 9 0
BBX 9 13 0 -2
BITMAP
0000
0000
0000
0000
0000
7F00
3180
3F00
3180
3180
7F00
0000
0000
ENDCHAR
STARTCHAR cyr-ghe
ENCODING 227
SWIDTH 692 0
DWIDTH 9 0
BBX 9 13 0 -2
BITMAP
0000
0000
0000
0000
0000
7F00
3300
3000
3000
3000
7800
0000
0000
ENDCHAR
STARTCHAR cyr-de
ENCODING 228
SWIDTH 692 0
DWIDTH 9 0
BBX 9 13 0 -2
BITMAP
0000
0000
0000
0000
0000
3F80
1B00
1B00
1B00
3300
7F80
6180
0000
ENDCHAR
STARTCHAR cyr-ie
ENCODING 229
SWIDTH 692 0
DWIDTH 9 0
BBX 9 13 0 -2
BITMAP
0000
0000
0000
0000
0000
3F00
6180
7F80
6000
6180
3F00
0000
0000
ENDCHAR
STARTCHAR cyr-zhe
ENCODING 230
SWIDTH 692 0
DWIDTH 9 0
BBX 9 13 0 -2
BITMAP
0000
0000
0000
0000
0000
7F80
3F00
1E00
3F00
3F00
7F80
0000
0000
ENDCHAR
STARTCHAR cyr-z
ENCODING 231
SWIDTH 692 0
DWIDTH 9 0
BBX 9 13 0 -2
BITMAP
0000
0000
0000
0000
0000
7F00
6180
0F00
0180
6180
3F00
0000
0000
ENDCHAR
STARTCHAR cyr-i
ENCODING 232
SWIDTH 692 0
DWIDTH 9 0
BBX 9 13 0 -2
BITMAP
0000
0000
0000
0000
0000
7F80
3300
3700
3F00
3B00
7F80
0000
0000
ENDCHAR
STARTCHAR cyr-i-short
ENCODING 233
SWIDTH 692 0
DWIDTH 9 0
BBX 9 13 0 -2
BITMAP
0000
0000
0000
1E00
0000
7F80
3300
3700
3F00
3B00
7F80
0000
0000
ENDCHAR
STARTCHAR cyr-ka
ENCODING 234
SWIDTH 692 0
DWIDTH 9 0
BBX 9 13 0 -2
BITMAP
0000
0000
0000
0000
0000
7F00
3600
3C00
3C00
3600
7B80
0000
0000
ENDCHAR
STARTCHAR cyr-el
ENCODING 235
SWIDTH 692 0
DWIDTH 9 0
BBX 9 13 0 -2
BITMAP
0000
0000
0000
0000
0000
3F80
1B00
1B00
1B00
1B00
7780
0000
0000
ENDCHAR
STARTCHAR cyr-em
ENCODING 236
SWIDTH 692 0
DWIDTH 9 0
BBX 9 13 0 -2
BITMAP
0000
0000
0000
0000
0000
7380
3F00
3F00
3F00
3300
7F80
0000
0000
ENDCHAR
STARTCHAR cyr-en
ENCODING 237
SWIDTH 692 0
DWIDTH 9 0
BBX 9 13 0 -2
BITMAP
0000
0000
0000
0000
0000
7F80
3300
3F00
3300
3300
7F80
0000
0000
ENDCHAR
STARTCHAR cyr-o
ENCODING 238
SWIDTH 692 0
DWIDTH 9 0
BBX 9 13 0 -2
BITMAP
0000
0000
0000
0000
0000
3F00
6180
6180
6180
6180
3F00
0000
0000
ENDCHAR
STARTCHAR cyr-pe
ENCODING 239
SWIDTH 692 0
DWIDTH 9 0
BBX 9 13 0 -2
BITMAP
0000
0000
0000
0000
0000
7F80
3300
3300
3300
3300
7F80
0000
0000
ENDCHAR
STARTCHAR cyr-er
ENCODING 240
SWIDTH 692 0
DWIDTH 9 0
BBX 9 13 0 -2
BITMAP
0000
0000
0000
0000
0000
7F00
3180
3180
3180
3180
3F00
3000
7800
ENDCHAR
STARTCHAR cyr-es
ENCODING 241
SWIDTH 692 0
DWIDTH 9 0
BBX 9 13 0 -2
BITMAP
0000
0000
0000
0000
0000
3F00
6180
6000
6000
6180
3F00
0000
0000
ENDCHAR
STARTCHAR cyr-te
ENCODING 242
SWIDTH 692 0
DWIDTH 9 0
BBX 9 13 0 -2
BITMAP
0000
0000
0000
0000
0000
7F80
6D80
0C00
0C00
0C00
1E00
0000
0000
ENDCHAR
STARTCHAR cyr-u
ENCODING 243
SWIDTH 692 0
DWIDTH 9 0
BBX 9 13 0 -2
BITMAP
0000
0000
0000
0000
0000
7F80
3300
3300
1E00
1E00
0C00
6C00
3800
ENDCHAR
STARTCHAR cyr-ef
ENCODING 244
SWIDTH 692 0
DWIDTH 9 0
BBX 9 13 0 -2
BITMAP
0000
0000
0000
1E00
0C00
3F00
6D80
6D80
6D80
6D80
3F00
0C00
1E00
ENDCHAR
STARTCHAR cyr-kha
ENCODING 245
SWIDTH 692 0
DWIDTH 9 0
BBX 9 13 0 -2
BITMAP
0000
0000
0000
0000
0000
7F80
3300
1E00
3300
3300
7F80
0000
0000
ENDCHAR
STARTCHAR cyr-tse
ENCODING 246
SWIDTH 692 0
DWIDTH 9 0
BBX 9 13 0 -2
BITMAP
0000
0000
0000
0000
0000
7F80
3300
3300
3300
3300
7F80
0180
0000
ENDCHAR
STARTCHAR cyr-che
ENCODING 247
SWIDTH 692 0
DWIDTH 9 0
BBX 9 13 0 -2
BITMAP
0000
0000
0000
0000
0000
7F80
3300
3700
1F00
0300
0780
0000
0000
ENDCHAR
STARTCHAR cyr-sha
ENCODING 248
SWIDTH 692 0
DWIDTH 9 0
BBX 9 13 0 -2
BITMAP
0000
0000
0000
0000
0000
7F80
3F00
3F00
3F00
3F00
7F80
0000
0000
ENDCHAR
STARTCHAR cyr-shcha
ENCODING 249
SWIDTH 692 0
DWIDTH 9 0
BBX 9 13 0 -2
BITMAP
0000
0000
0000
0000
0000
7F80
3F00
3F00
3F00
3F00
7F80
0180
0000
ENDCHAR
STARTCHAR cyr-ier
ENCODING 250
SWIDTH 692 0
DWIDTH 9 0
BBX 9 13 0 -2
BITMAP
0000
0000
0000
0000
0000
7C00
7800
1F00
1980
1980
3F00
0000
0000
ENDCHAR
STARTCHAR cyr-iery
ENCODING 251
SWIDTH 692 0
DWIDTH 9 0
BBX 9 13 0 -2
BITMAP
0000
0000
0000
0000
0000
F780
6300
7B00
6F00
6F00
FF80
0000
0000
ENDCHAR
STARTCHAR cyr-ierik
ENCODING 252
SWIDTH 692 0
DWIDTH 9 0
BBX 9 13 0 -2
BITMAP
0000
0000
0000
0000
0000
7800
3000
3E00
3300
3300
7E00
0000
0000
ENDCHAR
STARTCHAR cyr-e-rev
ENCODING 253
SWIDTH 692 0
DWIDTH 9 0
BBX 9 13 0 -2
BITMAP
0000
0000
0000
0000
0000
3F00
6180
0F80
0180
6180
3F00
0000
0000
ENDCHAR
STARTCHAR cyr-yu
ENCODING 254
SWIDTH 692 0
DWIDTH 9 0
BBX 9 13 0 -2
BITMAP
0000
0000
0000
0000
0000
FF00
7980
7980
7980
7980
FF00
0000
0000
ENDCHAR
STARTCHAR cyr-ya
ENCODING 255
SWIDTH 692 0
DWIDTH 9 0
BBX 9 13 0 -2
BITMAP
0000
0000
0000
0000
0000
1F80
3300
3300
1F00
1B00
7780
0000
0000
ENDCHAR
ENDFONT
